<svg width="38" height="31" viewBox="0 0 38 31" fill="none" xmlns="http://www.w3.org/2000/svg">
<path fill-rule="evenodd" clip-rule="evenodd" d="M14.9883 0.763638C6.71048 0.763638 0 7.4741 0 15.7519C0 24.0297 6.71047 30.7401 14.9883 30.7401H34.9726C36.6281 30.7401 37.9702 29.398 37.9702 27.7425C37.9702 26.0869 36.6281 24.7448 34.9726 24.7448H14.9883C10.0216 24.7448 5.9953 20.7186 5.9953 15.7519C5.9953 10.7852 10.0216 6.75894 14.9883 6.75894H34.9726C36.6281 6.75894 37.9702 5.41684 37.9702 3.76129C37.9702 2.10573 36.6281 0.763638 34.9726 0.763638H14.9883ZM34.9725 18.7496C36.628 18.7496 37.9701 17.4075 37.9701 15.752C37.9701 14.0964 36.628 12.7543 34.9725 12.7543C33.3169 12.7543 31.9748 14.0964 31.9748 15.752C31.9748 17.4075 33.3169 18.7496 34.9725 18.7496Z" fill="url(#paint0_linear_50_52)"/>
<defs>
<linearGradient id="paint0_linear_50_52" x1="0" y1="0.763638" x2="29.9765" y2="30.7401" gradientUnits="userSpaceOnUse">
<stop stop-color="#01FFB3"/>
<stop offset="1" stop-color="#B062E8"/>
</linearGradient>
</defs>
</svg>
