<svg width="181" height="38" viewBox="0 0 181 38" fill="none" xmlns="http://www.w3.org/2000/svg">
<g clip-path="url(#clip0_1_195)">
<path fill-rule="evenodd" clip-rule="evenodd" d="M15.1113 3.76364C6.83352 3.76364 0.123047 10.4741 0.123047 18.7519C0.123047 27.0297 6.83352 33.7401 15.1113 33.7401H35.0956C36.7512 33.7401 38.0933 32.398 38.0933 30.7425C38.0933 29.0869 36.7512 27.7448 35.0956 27.7448H15.1113C10.1446 27.7448 6.11835 23.7186 6.11835 18.7519C6.11835 13.7852 10.1446 9.75894 15.1113 9.75894H35.0956C36.7512 9.75894 38.0933 8.41684 38.0933 6.76129C38.0933 5.10573 36.7512 3.76364 35.0956 3.76364H15.1113ZM35.0955 21.7496C36.7511 21.7496 38.0932 20.4075 38.0932 18.752C38.0932 17.0964 36.7511 15.7543 35.0955 15.7543C33.4399 15.7543 32.0979 17.0964 32.0979 18.752C32.0979 20.4075 33.4399 21.7496 35.0955 21.7496Z" fill="url(#paint0_linear_1_195)"/>
<path d="M59.1121 22.4305L62.1048 24.0556C61.3754 25.0746 60.4476 25.8898 59.3213 26.5012C58.2057 27.1127 56.9936 27.4184 55.6849 27.4184C54.2047 27.4184 52.8531 27.0376 51.6303 26.276C50.4182 25.5144 49.4474 24.4954 48.718 23.2189C47.9993 21.9317 47.64 20.5104 47.64 18.955C47.64 17.7751 47.8491 16.6756 48.2675 15.6566C48.6858 14.6268 49.2597 13.7258 49.9891 12.9535C50.7292 12.1704 51.5874 11.559 52.5635 11.1192C53.5396 10.6794 54.5801 10.4595 55.6849 10.4595C56.9936 10.4595 58.2057 10.7653 59.3213 11.3767C60.4476 11.9881 61.3754 12.8087 62.1048 13.8384L59.1121 15.4635C58.6616 14.9272 58.136 14.5196 57.5353 14.2407C56.9346 13.9511 56.3178 13.8063 55.6849 13.8063C54.8054 13.8063 54.0062 14.0476 53.2875 14.5303C52.5796 15.0023 52.0164 15.6298 51.5981 16.4128C51.1905 17.1851 50.9867 18.0326 50.9867 18.955C50.9867 19.8668 51.1958 20.7142 51.6142 21.4973C52.0325 22.2696 52.5957 22.8917 53.3036 23.3637C54.0223 23.8357 54.8161 24.0716 55.6849 24.0716C56.35 24.0716 56.9829 23.9215 57.5836 23.6211C58.1842 23.3208 58.6938 22.9239 59.1121 22.4305ZM64.5068 10.9101H67.8535V27H64.5068V10.9101ZM66.2123 8.57702C65.6974 8.57702 65.2683 8.41076 64.9251 8.07823C64.5818 7.74571 64.4102 7.32737 64.4102 6.82322C64.4102 6.32979 64.5818 5.91682 64.9251 5.58429C65.2683 5.24104 65.692 5.06941 66.1962 5.06941C66.6896 5.06941 67.108 5.24104 67.4512 5.58429C67.7945 5.91682 67.9661 6.32979 67.9661 6.82322C67.9661 7.32737 67.7945 7.74571 67.4512 8.07823C67.1187 8.41076 66.7057 8.57702 66.2123 8.57702ZM73.5428 35.045H70.1961V10.9101H73.5428V13.2753C74.0791 12.4493 74.7656 11.7789 75.6023 11.264C76.439 10.7492 77.4258 10.4917 78.5628 10.4917C79.732 10.4917 80.8262 10.7116 81.8452 11.1514C82.8749 11.5912 83.776 12.2026 84.5483 12.9857C85.3206 13.758 85.9267 14.6537 86.3665 15.6727C86.8063 16.6917 87.0262 17.7858 87.0262 18.955C87.0262 20.1242 86.8063 21.2237 86.3665 22.2535C85.9267 23.2832 85.3206 24.1896 84.5483 24.9727C83.776 25.745 82.8749 26.3511 81.8452 26.7909C80.8262 27.2306 79.732 27.4505 78.5628 27.4505C77.4258 27.4505 76.439 27.1931 75.6023 26.6782C74.7656 26.1526 74.0791 25.4822 73.5428 24.667V35.045ZM78.5307 13.7258C77.5974 13.7258 76.7769 13.9618 76.0689 14.4338C75.3609 14.9057 74.8085 15.5386 74.4116 16.3324C74.0147 17.1154 73.8163 17.9896 73.8163 18.955C73.8163 19.9204 74.0147 20.8 74.4116 21.5938C74.8085 22.3876 75.3609 23.0204 76.0689 23.4924C76.7769 23.9644 77.5974 24.2004 78.5307 24.2004C79.4532 24.2004 80.3006 23.9697 81.0729 23.5085C81.8452 23.0365 82.462 22.4037 82.9232 21.6099C83.3845 20.8161 83.6151 19.9312 83.6151 18.955C83.6151 18.0004 83.3845 17.1262 82.9232 16.3324C82.4727 15.5386 81.8613 14.9057 81.089 14.4338C80.3166 13.9618 79.4639 13.7258 78.5307 13.7258ZM103.91 16.9116V27H100.563V17.7322C100.563 17.0135 100.386 16.3592 100.032 15.7692C99.6886 15.1793 99.222 14.7127 98.632 14.3694C98.0528 14.0154 97.3985 13.8384 96.6691 13.8384C95.9611 13.8384 95.3121 14.0154 94.7222 14.3694C94.1322 14.7127 93.6602 15.1793 93.3063 15.7692C92.9523 16.3592 92.7753 17.0135 92.7753 17.7322V27H89.4286V2.86509H92.7753V12.6156C93.3331 11.9505 94.0196 11.4249 94.8348 11.0388C95.65 10.6526 96.5296 10.4595 97.4736 10.4595C98.6642 10.4595 99.7476 10.7492 100.724 11.3284C101.7 11.9076 102.472 12.6853 103.041 13.6614C103.62 14.6376 103.91 15.721 103.91 16.9116ZM113.887 27.4184C112.406 27.4184 111.055 27.0376 109.832 26.276C108.62 25.5144 107.649 24.4954 106.92 23.2189C106.201 21.9317 105.842 20.5104 105.842 18.955C105.842 17.7751 106.051 16.6756 106.469 15.6566C106.887 14.6268 107.461 13.7258 108.191 12.9535C108.931 12.1704 109.789 11.559 110.765 11.1192C111.741 10.6794 112.782 10.4595 113.887 10.4595C115.12 10.4595 116.252 10.717 117.282 11.2319C118.311 11.736 119.191 12.4386 119.92 13.3396C120.65 14.23 121.186 15.2597 121.529 16.4289C121.873 17.5874 121.974 18.821 121.835 20.1296H109.43C109.569 20.8697 109.837 21.5402 110.234 22.1409C110.642 22.7308 111.157 23.1974 111.779 23.5407C112.412 23.8839 113.114 24.0609 113.887 24.0716C114.702 24.0716 115.442 23.8678 116.107 23.4602C116.783 23.0526 117.335 22.4895 117.764 21.7708L121.159 22.5592C120.516 23.9858 119.545 25.155 118.247 26.0668C116.949 26.9678 115.496 27.4184 113.887 27.4184ZM109.317 17.5713H118.456C118.349 16.799 118.075 16.1018 117.636 15.4796C117.206 14.8467 116.665 14.348 116.01 13.9832C115.367 13.6078 114.659 13.4201 113.887 13.4201C113.125 13.4201 112.417 13.6025 111.763 13.9672C111.119 14.3319 110.583 14.8307 110.154 15.4635C109.735 16.0857 109.456 16.7883 109.317 17.5713ZM124.5 27V10.9101H127.846V12.6156C128.404 11.9505 129.091 11.4249 129.906 11.0388C130.721 10.6526 131.601 10.4595 132.545 10.4595C133.145 10.4595 133.741 10.54 134.331 10.7009L132.995 14.0798C132.577 13.9189 132.158 13.8384 131.74 13.8384C131.032 13.8384 130.383 14.0154 129.793 14.3694C129.203 14.7127 128.731 15.1793 128.377 15.7692C128.023 16.3592 127.846 17.0135 127.846 17.7322V27H124.5ZM142.515 27.4184C141.035 27.4184 139.684 27.0376 138.461 26.276C137.249 25.5144 136.278 24.4954 135.548 23.2189C134.83 21.9317 134.47 20.5104 134.47 18.955C134.47 17.7751 134.68 16.6756 135.098 15.6566C135.516 14.6268 136.09 13.7258 136.82 12.9535C137.56 12.1704 138.418 11.559 139.394 11.1192C140.37 10.6794 141.411 10.4595 142.515 10.4595C143.749 10.4595 144.881 10.717 145.91 11.2319C146.94 11.736 147.82 12.4386 148.549 13.3396C149.279 14.23 149.815 15.2597 150.158 16.4289C150.501 17.5874 150.603 18.821 150.464 20.1296H138.058C138.198 20.8697 138.466 21.5402 138.863 22.1409C139.271 22.7308 139.785 23.1974 140.408 23.5407C141.04 23.8839 141.743 24.0609 142.515 24.0716C143.331 24.0716 144.071 23.8678 144.736 23.4602C145.412 23.0526 145.964 22.4895 146.393 21.7708L149.788 22.5592C149.144 23.9858 148.174 25.155 146.876 26.0668C145.578 26.9678 144.124 27.4184 142.515 27.4184ZM137.946 17.5713H147.085C146.978 16.799 146.704 16.1018 146.264 15.4796C145.835 14.8467 145.294 14.348 144.639 13.9832C143.996 13.6078 143.288 13.4201 142.515 13.4201C141.754 13.4201 141.046 13.6025 140.392 13.9672C139.748 14.3319 139.212 14.8307 138.783 15.4635C138.364 16.0857 138.085 16.7883 137.946 17.5713ZM153.128 27V10.9101H156.475V12.6156C157.033 11.9505 157.714 11.4249 158.519 11.0388C159.334 10.6526 160.213 10.4595 161.157 10.4595C162.305 10.4595 163.362 10.7384 164.327 11.2962C165.292 11.8433 166.059 12.5727 166.628 13.4845C167.196 12.5727 167.953 11.8433 168.897 11.2962C169.851 10.7384 170.903 10.4595 172.05 10.4595C173.241 10.4595 174.324 10.7492 175.3 11.3284C176.277 11.9076 177.054 12.6853 177.633 13.6614C178.213 14.6376 178.502 15.721 178.502 16.9116V27H175.156V17.7644C175.156 17.0564 174.984 16.4075 174.641 15.8175C174.297 15.2275 173.836 14.7502 173.257 14.3855C172.678 14.0208 172.034 13.8384 171.326 13.8384C170.618 13.8384 169.975 14.0101 169.395 14.3533C168.816 14.6966 168.355 15.1632 168.012 15.7531C167.668 16.3431 167.497 17.0135 167.497 17.7644V27H164.15V17.7644C164.15 17.0135 163.978 16.3431 163.635 15.7531C163.292 15.1632 162.825 14.6966 162.235 14.3533C161.656 14.0101 161.013 13.8384 160.305 13.8384C159.607 13.8384 158.964 14.0208 158.374 14.3855C157.795 14.7502 157.333 15.2275 156.99 15.8175C156.647 16.4075 156.475 17.0564 156.475 17.7644V27H153.128Z" fill="white"/>
</g>
<defs>
<linearGradient id="paint0_linear_1_195" x1="0.123047" y1="3.76364" x2="30.0995" y2="33.7401" gradientUnits="userSpaceOnUse">
<stop stop-color="#01FFB3"/>
<stop offset="1" stop-color="#B062E8"/>
</linearGradient>
<clipPath id="clip0_1_195">
<rect width="180.552" height="37.5038" fill="white" transform="translate(0.123047)"/>
</clipPath>
</defs>
</svg>
