<svg width="26" height="26" viewBox="0 0 26 26" fill="none" xmlns="http://www.w3.org/2000/svg">
<path d="M12.8721 0.70401V13.0027H25.1708C25.1708 9.7409 23.875 6.61267 21.5686 4.30622C19.2621 1.99976 16.1339 0.70401 12.8721 0.70401Z" fill="#51B0D4"/>
<path d="M25.1708 13.0027H12.8721V25.2959C14.4869 25.2967 16.0861 24.9792 17.5782 24.3618C19.0703 23.7443 20.4261 22.8389 21.5682 21.6973C22.7103 20.5557 23.6164 19.2002 24.2345 17.7084C24.8526 16.2166 25.1708 14.6176 25.1708 13.0027Z" fill="#0D648D"/>
<path d="M12.8721 25.2959V13.0027H0.578857C0.578857 16.2631 1.87403 19.3899 4.17946 21.6953C6.48488 24.0008 9.61171 25.2959 12.8721 25.2959Z" fill="#2F8AB1"/>
<path d="M0.578859 13.0027H12.8721V0.70401C11.2572 0.70401 9.65824 1.02217 8.1664 1.6403C6.67456 2.25844 5.31912 3.16444 4.17752 4.30655C3.03591 5.44866 2.13052 6.80451 1.51305 8.29662C0.895578 9.78874 0.578138 11.3879 0.578859 13.0027Z" fill="#9BE7FE"/>
<path d="M12.8728 24.0996C19.0045 24.0996 23.9751 19.1289 23.9751 12.9973C23.9751 6.86562 19.0045 1.89494 12.8728 1.89494C6.74118 1.89494 1.77051 6.86562 1.77051 12.9973C1.77051 19.1289 6.74118 24.0996 12.8728 24.0996Z" fill="#51B0D4"/>
<path d="M7.42795 10.599H10.4683V7.55858C10.4683 7.16945 10.6225 6.79618 10.8972 6.52051C11.1718 6.24484 11.5445 6.08924 11.9336 6.08778H13.8106C14.1997 6.08924 14.5724 6.24484 14.847 6.52051C15.1217 6.79618 15.2759 7.16945 15.2759 7.55858V10.599H18.3162C18.5089 10.5982 18.6997 10.6356 18.8778 10.709C19.0559 10.7824 19.2178 10.8903 19.354 11.0265C19.4902 11.1627 19.5981 11.3246 19.6715 11.5027C19.7449 11.6808 19.7823 11.8716 19.7815 12.0643V13.9357C19.7823 14.1283 19.7449 14.3192 19.6715 14.4973C19.5981 14.6754 19.4902 14.8372 19.354 14.9734C19.2178 15.1097 19.0559 15.2176 18.8778 15.2909C18.6997 15.3643 18.5089 15.4017 18.3162 15.401H15.2759V18.4469C15.2744 18.835 15.1196 19.2069 14.8451 19.4814C14.5706 19.7559 14.1987 19.9107 13.8106 19.9122H11.9336C11.5455 19.9107 11.1736 19.7559 10.8991 19.4814C10.6246 19.2069 10.4698 18.835 10.4683 18.4469V15.401H7.42795C7.03933 15.401 6.66663 15.2466 6.39183 14.9718C6.11703 14.697 5.96265 14.3243 5.96265 13.9357V12.0588C5.9641 11.6711 6.11912 11.2998 6.39376 11.0262C6.6684 10.7526 7.04028 10.599 7.42795 10.599Z" fill="#9BE7FE"/>
</svg>
