<svg width="37" height="42" viewBox="0 0 37 42" fill="none" xmlns="http://www.w3.org/2000/svg">
<path d="M36.8241 30.9416C36.8272 30.8886 36.8272 30.8354 36.8241 30.7824C36.8269 30.733 36.8269 30.6836 36.8241 30.6342C36.8269 30.6142 36.8269 30.5939 36.8241 30.5739V30.486V30.3379C36.8241 30.283 36.8241 30.2336 36.8241 30.1842V30.1184C36.8241 30.1184 36.8241 30.0799 36.8241 30.058L36.7802 29.9153C36.7802 29.8659 36.7363 29.8165 36.7089 29.7671C36.6946 29.7331 36.6781 29.7001 36.6595 29.6683L31.6654 21.0192L36.643 12.3755C36.6617 12.3437 36.6782 12.3107 36.6924 12.2767C36.7199 12.2273 36.7418 12.1779 36.7638 12.1285L36.8077 11.9858C36.8077 11.9858 36.8077 11.9474 36.8077 11.9255V11.8596C36.805 11.8103 36.805 11.7608 36.8077 11.7114V11.5633V11.4864C36.8104 11.4664 36.8104 11.4461 36.8077 11.4261C36.8104 11.3767 36.8104 11.3273 36.8077 11.2779C36.8103 11.2249 36.8103 11.1718 36.8077 11.1187C36.8077 11.0858 36.8077 11.0474 36.8077 11.0145C36.8106 11.0056 36.8106 10.9959 36.8077 10.987C36.7952 10.9339 36.7768 10.8824 36.7528 10.8334C36.7387 10.7886 36.7223 10.7446 36.7034 10.7016C36.6872 10.6676 36.6689 10.6346 36.6485 10.6029C36.6498 10.5901 36.6498 10.5772 36.6485 10.5644C36.6485 10.5644 36.6485 10.5644 36.6485 10.5315C36.6485 10.4986 36.6101 10.4712 36.5882 10.4382L36.5113 10.3394L36.3961 10.2022L36.3577 10.1748C36.2975 10.1172 36.2333 10.064 36.1656 10.0156L36.0668 9.94979L36.0119 9.91686L35.8692 9.84552L35.7595 9.80161C35.6962 9.73546 35.6242 9.67823 35.5454 9.63148H35.4576H35.3643C35.2541 9.60965 35.1419 9.59862 35.0295 9.59856H25.0248L20.0307 0.949393C20.0307 0.949393 20.0307 0.949398 20.0307 0.910981C19.9645 0.796432 19.8833 0.691226 19.7892 0.598159V0.559747C19.6906 0.462048 19.5799 0.377221 19.46 0.307293H19.427H19.3722C19.252 0.240783 19.1251 0.187427 18.9935 0.148144C18.838 0.104756 18.6774 0.0826055 18.516 0.0822898C18.3546 0.081839 18.1939 0.104004 18.0386 0.148144C17.9049 0.186406 17.776 0.239799 17.6544 0.307293H17.605C17.5923 0.304779 17.5793 0.304779 17.5666 0.307293C17.4466 0.377221 17.336 0.462048 17.2373 0.559747V0.598159C17.1433 0.691226 17.062 0.796432 16.9958 0.910981C16.9958 0.910981 16.9958 0.910977 16.9958 0.949393L11.8371 9.5766H1.84883C1.73753 9.58398 1.62723 9.60237 1.51955 9.63148H1.42076H1.33296C1.28609 9.64462 1.24024 9.66112 1.19576 9.68087L1.08599 9.72478L0.948793 9.79613L0.893913 9.82905L0.789639 9.89491C0.721886 9.94329 0.657695 9.99649 0.597558 10.0541L0.564631 10.0815C0.525068 10.1248 0.488399 10.1706 0.454868 10.2187C0.454868 10.2516 0.394503 10.2846 0.372551 10.3175C0.350598 10.3504 0.334134 10.3833 0.312182 10.4108C0.29023 10.4382 0.312182 10.4108 0.312182 10.4437V10.4821L0.257298 10.5809L0.207908 10.7126C0.186333 10.7626 0.168003 10.8139 0.153028 10.8663C0.153028 10.8663 0.153028 10.8663 0.153028 10.8937C0.150383 10.9284 0.150383 10.9633 0.153028 10.998C0.153028 11.0529 0.153025 11.1023 0.120097 11.1572C0.117362 11.2065 0.117362 11.256 0.120097 11.3053C0.120097 11.3053 0.120097 11.3438 0.120097 11.3657C0.117373 11.3912 0.117373 11.417 0.120097 11.4425C0.114703 11.4918 0.114703 11.5415 0.120097 11.5907C0.117438 11.6401 0.117438 11.6895 0.120097 11.7389V11.8048V11.8651C0.134098 11.9135 0.150586 11.9611 0.169491 12.0078C0.169491 12.0572 0.213397 12.1066 0.235349 12.156C0.249599 12.19 0.266097 12.223 0.28474 12.2548L5.27886 20.9094L0.28474 29.5586C0.266097 29.5904 0.249599 29.6234 0.235349 29.6574C0.235349 29.7068 0.185956 29.7561 0.169491 29.8055C0.150586 29.8522 0.134098 29.8998 0.120097 29.9482V30.0086V30.0744C0.117056 30.1256 0.117056 30.1769 0.120097 30.2281C0.114427 30.2773 0.114427 30.3271 0.120097 30.3763C0.117169 30.4 0.117169 30.4239 0.120097 30.4476C0.120097 30.4476 0.120097 30.486 0.120097 30.508C0.117362 30.5574 0.117362 30.6068 0.120097 30.6562C0.12788 30.7098 0.138879 30.763 0.153028 30.8153C0.150383 30.85 0.150383 30.8849 0.153028 30.9196C0.153028 30.9196 0.153028 30.9196 0.153028 30.947C0.168003 30.9994 0.186333 31.0507 0.207908 31.1007L0.257298 31.2324L0.312182 31.3312V31.3696V31.4026C0.312182 31.4355 0.350598 31.4684 0.372551 31.4958C0.394503 31.5233 0.427428 31.5617 0.454868 31.5946C0.488399 31.6427 0.525068 31.6886 0.564631 31.7318L0.597558 31.7593C0.657695 31.8169 0.721886 31.87 0.789639 31.9184L0.893913 31.9843C0.910107 31.9984 0.928689 32.0096 0.948793 32.0172L1.08599 32.0886L1.19576 32.1379L1.33296 32.1819H1.42076H1.51955C1.62977 32.2039 1.74191 32.215 1.85432 32.2148H11.8371L16.8312 40.8694V40.9024C16.8987 41.0177 16.9798 41.1245 17.0727 41.2207V41.2536C17.1729 41.3479 17.2833 41.4308 17.402 41.5006C17.4123 41.5127 17.4255 41.5221 17.4404 41.528H17.4898C17.6113 41.5955 17.7402 41.6489 17.8739 41.6872C18.03 41.7268 18.1904 41.747 18.3514 41.7475C18.5124 41.7464 18.6726 41.7261 18.8288 41.6872C18.9604 41.6479 19.0874 41.5945 19.2075 41.528C19.2075 41.528 19.2459 41.528 19.2569 41.528C19.2717 41.5221 19.2849 41.5127 19.2953 41.5006C19.4153 41.4306 19.5259 41.3458 19.6246 41.2481V41.2152C19.7175 41.1191 19.7985 41.0122 19.8661 40.8969V40.8639L24.8602 32.2093H34.9966C35.109 32.2092 35.2211 32.1982 35.3314 32.1764H35.4247H35.5125L35.6497 32.1325L35.7595 32.0831L35.9021 32.0117L35.957 31.9788L36.0558 31.9129C36.1236 31.8646 36.1878 31.8114 36.2479 31.7538L36.2863 31.7263L36.4016 31.5891L36.4784 31.4904C36.4784 31.4629 36.5168 31.43 36.5388 31.3971V31.3641C36.54 31.3514 36.54 31.3385 36.5388 31.3257C36.5591 31.294 36.5775 31.261 36.5936 31.2269C36.6134 31.1843 36.6299 31.1403 36.643 31.0952C36.667 31.0462 36.6854 30.9947 36.6979 30.9416C36.7008 30.9326 36.7008 30.923 36.6979 30.9141C36.8132 31.0349 36.8132 30.9745 36.8241 30.9416Z" fill="#002542"/>
<path d="M18.4274 1.84945L12.9009 11.4261H1.84253L18.4274 20.9972V1.84945Z" fill="#FFE384"/>
<path d="M35.0128 11.5766H23.9599L18.4279 2V21.1478L35.0128 11.5766Z" fill="#FFC33D"/>
<path d="M35.0128 30.5739L29.4863 20.9972L35.0128 11.4261L18.4279 20.9972L35.0128 30.5739Z" fill="#F1A327"/>
<path d="M18.4279 40.1505L23.9599 30.5739H35.0128L18.4279 20.9972V40.1505Z" fill="#EF7429"/>
<path d="M1.84253 30.5739H12.9009L18.4274 40.1505V20.9972L1.84253 30.5739Z" fill="#F1A327"/>
<path d="M1.84802 11L7.37448 20.5711L1.84253 30.1478L18.4274 20.5711L1.84802 11Z" fill="#FFC33D"/>
<path d="M26.7207 16.2117H21.1942L18.4282 11.4261L15.6678 16.2117H10.1358L12.9018 20.9972L10.1358 25.7883H15.6678L18.4282 30.5739L21.1942 25.7883H26.7207L23.9602 20.9972L25.7109 17.9624L26.7207 16.2117Z" fill="#FFD569"/>
</svg>
